# Blender v3.1.2 OBJ File: 'mountain_basic_01.blend'
# www.blender.org
mtllib mountain_basic_01.mtl
o Cube
v 1.000000 1.331579 -1.000000
v 4.273347 0.000000 -2.395606
v 1.000000 1.363809 1.500402
v 2.945115 0.000000 4.925813
v -1.000000 2.536165 -1.000000
v -2.414429 0.000000 -5.854143
v -1.245147 0.970741 0.564246
v -4.929084 0.000000 1.698510
v -3.638959 0.000000 -1.768416
v 0.556219 0.000000 -4.211119
v 1.876878 0.719865 -1.697803
v -2.635294 0.410475 1.128209
v 1.515488 0.752224 2.786201
v -1.707215 1.313314 -2.768416
v 0.482531 1.663262 0.843133
v 0.968799 0.831941 0.007629
v -0.552121 0.000000 4.510654
v -1.000000 1.321944 0.000000
v 0.000000 1.866633 -1.000000
v 3.610188 0.000000 1.088398
v 0.084832 0.835135 -2.233109
v 1.561957 0.404216 0.633202
v -0.422412 0.000000 -0.340009
v -2.334955 0.963961 -0.561258
v -0.820656 0.693648 1.893101
v 0.091060 1.530092 0.000000
v -4.915480 0.000000 1.105700
v -1.122383 0.000000 -5.495751
v 2.852326 0.460070 -2.046705
v -1.735702 0.714580 0.779516
v 2.230301 0.383020 3.679302
v -2.060822 0.640412 -4.137260
v -0.327868 1.302924 0.673794
v 0.984400 1.239525 0.754016
v 1.589156 0.000000 5.059990
v -1.254405 1.965119 -0.500000
v 0.500000 1.599106 -1.000000
v 4.020279 0.000000 -0.653604
v -3.268039 0.000000 -4.689230
v 1.998718 0.000000 -2.827352
v 1.438439 1.175347 -1.348902
v -3.534430 0.206254 1.349254
v 1.257744 1.143692 2.143302
v -1.353607 1.881834 -1.884208
v 0.741266 1.513535 1.058785
v 0.984400 1.108079 -0.496186
v -2.703461 0.000000 2.718451
v -0.966513 1.079759 0.365211
v -0.500000 2.324141 -1.000000
v 3.157402 0.000000 3.327684
v 0.980855 0.640288 -1.965456
v -1.204636 1.089169 -3.217431
v 0.127248 0.470109 -2.849664
v 0.042416 1.335273 -1.616555
v 1.538723 0.978999 1.798751
v 1.719418 0.614873 -0.443251
v 2.206805 0.169933 0.736010
v 1.265378 0.562411 0.328974
v -1.939235 1.033553 -1.826312
v -2.403275 0.724476 0.057896
v -2.756882 0.423333 -1.326312
v -1.750069 1.229825 -0.089156
v -1.727975 0.732839 1.446550
v 0.347416 0.451521 2.339651
v -0.852519 0.291105 2.786505
v -0.169062 1.264194 1.255134
v 0.241266 1.527973 0.308583
v 0.000000 1.865769 -0.500000
v 0.484400 1.237741 0.003814
v -0.500000 1.351518 0.000000
v -0.500000 1.877117 -0.500000
v 0.492200 1.418423 -0.498093
v 0.612833 1.484806 0.531300
v 0.544341 0.982528 1.699218
v 0.849764 0.240857 3.232904
v -2.032602 0.253997 2.067880
v -1.736204 1.000501 0.211553
v -3.145656 0.437786 0.069088
v -2.408852 0.531873 -2.731786
v 1.351909 0.863026 -0.469718
v 2.449586 0.298758 -0.548427
v 2.138574 0.608296 2.314576
v -0.821532 1.825453 -1.750381
v -1.214204 0.560518 -4.109989
v 1.489787 0.346804 -2.448184
v 0.740427 1.119697 -1.482728
v 1.261561 1.168922 1.276384
v -1.551552 1.731137 -1.043070
v -1.027922 1.122738 1.060172
v -0.413934 1.295106 0.336897
v 2.682104 0.108253 2.031847
vt 0.875000 0.687500
vt 0.812500 0.750000
vt 0.812500 0.687500
vt 0.562500 0.937500
vt 0.625000 1.000000
vt 0.562500 1.000000
vt 0.562500 0.187500
vt 0.625000 0.250000
vt 0.562500 0.250000
vt 0.312500 0.750000
vt 0.375000 0.687500
vt 0.375000 0.750000
vt 0.562500 0.687500
vt 0.625000 0.750000
vt 0.562500 0.750000
vt 0.562500 0.437500
vt 0.625000 0.500000
vt 0.562500 0.500000
vt 0.437500 0.437500
vt 0.500000 0.500000
vt 0.437500 0.500000
vt 0.500000 0.312500
vt 0.437500 0.375000
vt 0.437500 0.312500
vt 0.562500 0.312500
vt 0.625000 0.375000
vt 0.562500 0.375000
vt 0.437500 0.687500
vt 0.500000 0.750000
vt 0.437500 0.750000
vt 0.500000 0.562500
vt 0.437500 0.625000
vt 0.437500 0.562500
vt 0.562500 0.562500
vt 0.625000 0.625000
vt 0.562500 0.625000
vt 0.125000 0.687500
vt 0.187500 0.750000
vt 0.125000 0.750000
vt 0.250000 0.500000
vt 0.125000 0.625000
vt 0.125000 0.562500
vt 0.312500 0.500000
vt 0.375000 0.500000
vt 0.375000 0.562500
vt 0.437500 0.187500
vt 0.500000 0.250000
vt 0.437500 0.250000
vt 0.437500 0.062500
vt 0.500000 0.125000
vt 0.437500 0.125000
vt 0.562500 0.062500
vt 0.625000 0.125000
vt 0.562500 0.125000
vt 0.250000 0.625000
vt 0.500000 0.812500
vt 0.437500 0.875000
vt 0.437500 0.812500
vt 0.625000 0.812500
vt 0.562500 0.875000
vt 0.562500 0.812500
vt 0.687500 0.687500
vt 0.750000 0.750000
vt 0.687500 0.750000
vt 0.687500 0.562500
vt 0.750000 0.625000
vt 0.687500 0.625000
vt 0.812500 0.562500
vt 0.875000 0.625000
vt 0.812500 0.625000
vt 0.750000 0.562500
vt 0.625000 0.937500
vt 0.625000 0.875000
vt 0.812500 0.500000
vt 0.875000 0.562500
vt 0.625000 0.562500
vt 0.687500 0.500000
vt 0.625000 0.687500
vt 0.750000 0.687500
vt 0.500000 0.875000
vt 0.375000 0.875000
vt 0.375000 0.812500
vt 0.375000 0.937500
vt 0.437500 1.000000
vt 0.375000 1.000000
vt 0.437500 0.937500
vt 0.500000 0.062500
vt 0.562500 0.000000
vt 0.500000 0.000000
vt 0.625000 0.000000
vt 0.375000 0.125000
vt 0.375000 0.062500
vt 0.437500 0.000000
vt 0.375000 0.000000
vt 0.375000 0.187500
vt 0.375000 0.250000
vt 0.500000 0.187500
vt 0.375000 0.625000
vt 0.125000 0.500000
vt 0.187500 0.500000
vt 0.250000 0.750000
vt 0.500000 0.625000
vt 0.500000 0.687500
vt 0.500000 0.375000
vt 0.375000 0.375000
vt 0.375000 0.312500
vt 0.375000 0.437500
vt 0.500000 0.437500
vt 0.625000 0.437500
vt 0.625000 0.187500
vt 0.500000 1.000000
vt 0.500000 0.937500
vt 0.625000 0.312500
vt 0.406250 0.656250
vt 0.000000 0.000000
vt 0.000000 0.000000
vt 0.000000 0.000000
vt 0.000000 0.000000
vt 0.875000 0.750000
vt 0.625000 0.062500
vt 0.875000 0.500000
vt 0.750000 0.500000
vn -0.3591 0.9307 0.0701
vn -0.4817 0.8745 -0.0570
vn -0.8192 0.5662 -0.0914
vn -0.0000 -1.0000 -0.0000
vn 0.6113 0.7909 0.0257
vn 0.0045 0.9148 -0.4039
vn 0.0657 0.8796 -0.4712
vn 0.4756 0.7546 -0.4521
vn 0.4736 0.6830 -0.5560
vn 0.3179 0.9387 0.1336
vn 0.4119 0.8957 0.1677
vn 0.3814 0.8508 0.3615
vn -0.7406 0.6588 -0.1325
vn -0.6317 0.7531 -0.1838
vn -0.1675 0.7802 0.6027
vn -0.0367 0.9678 0.2489
vn -0.0793 0.7792 0.6217
vn 0.6053 0.7731 -0.1895
vn 0.5698 0.7704 0.2862
vn -0.0407 0.6887 0.7239
vn 0.0189 0.8317 0.5549
vn -0.3567 0.9071 -0.2232
vn 0.0866 0.7427 0.6640
vn 0.5857 0.7030 0.4034
vn 0.4955 0.7882 0.3650
vn 0.6476 0.7137 0.2670
vn 0.6606 0.7382 -0.1367
vn 0.6563 0.6563 -0.3721
vn 0.3728 0.8021 -0.4665
vn -0.0765 0.7790 0.6224
vn -0.4051 0.6997 0.5885
vn -0.4520 0.7726 0.4458
vn -0.0373 0.9887 0.1454
vn 0.0276 0.9599 0.2791
vn -0.2565 0.8034 0.5374
vn -0.0932 0.9747 0.2034
vn -0.1594 0.9685 0.1913
vn -0.2642 0.8828 0.3883
vn -0.5581 0.7927 0.2450
vn -0.2317 0.9459 0.2273
vn -0.2597 0.8625 0.4344
vn -0.3140 0.9391 -0.1395
vn -0.1471 0.9891 -0.0034
vn -0.1923 0.9742 0.1178
vn -0.3565 0.8971 -0.2612
vn -0.4322 0.9001 -0.0549
vn -0.6328 0.7681 -0.0974
vn 0.2709 0.9365 0.2229
vn 0.7669 0.6244 0.1485
vn 0.5381 0.7761 0.3287
vn 0.1896 0.9809 0.0446
vn 0.3179 0.9470 0.0462
vn 0.3141 0.9313 0.1847
vn 0.3984 0.9157 0.0529
vn 0.6795 0.6633 -0.3135
vn 0.5120 0.7067 -0.4884
vn -0.0017 0.8939 -0.4482
vn 0.2380 0.7328 -0.6375
vn 0.2651 0.8998 -0.3464
vn 0.1015 0.9251 -0.3660
vn 0.0971 0.8559 -0.5080
vn 0.1126 0.7973 -0.5930
vn 0.3355 0.8747 -0.3497
vn 0.1882 0.9147 -0.3577
vn 0.1508 0.6885 -0.7094
vn 0.3342 0.7467 -0.5751
vn 0.3402 0.7465 -0.5719
vn 0.6550 0.7330 0.1837
vn 0.8162 0.5245 -0.2424
vn 0.7746 0.5341 -0.3388
vn -0.8235 0.5662 -0.0347
vn -0.7453 0.6366 -0.1981
vn -0.7746 0.6117 0.1603
vn -0.3999 0.8769 -0.2668
vn -0.2035 0.8488 0.4879
vn 0.0169 0.7454 0.6664
vn -0.3964 0.9165 -0.0530
vn -0.3240 0.9317 0.1641
vn -0.3419 0.9087 0.2395
vn -0.2434 0.8602 0.4482
vn -0.3898 0.8988 0.2008
vn -0.1654 0.5637 0.8093
vn -0.4235 0.7108 0.5616
vn -0.8119 0.5450 0.2094
vn -0.5767 0.7665 0.2828
vn -0.3389 0.8895 0.3066
vn -0.6523 0.7402 -0.1633
vn -0.1534 0.9541 0.2573
vn 0.1193 0.9928 0.0035
vn 0.6205 0.7669 -0.1635
vn 0.6751 0.7378 0.0013
vn 0.3648 0.9011 -0.2345
vn -0.3438 0.9385 0.0328
vn -0.3214 0.9356 -0.1460
vn 0.5034 0.8505 -0.1521
vn 0.3972 0.7424 -0.5395
vn 0.0621 0.8806 -0.4698
vn 0.3721 0.9027 0.2161
vn -0.7436 0.6684 0.0153
vn -0.1940 0.8093 0.5545
vn -0.4296 0.8048 0.4096
vn 0.0315 0.9109 0.4115
vn -0.0763 0.7738 0.6288
vn 0.3208 0.8736 -0.3659
vn 0.6290 0.6936 0.3511
vn 0.0735 0.6300 0.7731
vn -0.2039 0.6748 0.7093
vn 0.2439 0.5751 0.7809
vn 0.5082 0.8078 0.2987
vn 0.4487 0.8386 0.3089
vn 0.4718 0.8817 0.0015
vn 0.6182 0.7622 -0.1920
vn 0.5730 0.6797 -0.4579
vn 0.5753 0.7704 -0.2747
vn -0.0773 0.7811 0.6196
vn -0.4649 0.7465 0.4760
vn -0.4162 0.7587 0.5011
vn -0.0152 0.9855 0.1690
vn -0.1621 0.9677 0.1932
vn -0.3701 0.8359 0.4053
vn -0.1409 0.9628 0.2306
vn -0.1594 0.9642 0.2120
vn -0.2226 0.8219 0.5243
vn -0.4277 0.8072 0.4067
vn -0.1563 0.9420 0.2971
vn -0.3819 0.9169 -0.1159
vn -0.1682 0.9777 0.1257
vn -0.3510 0.9163 0.1927
vn -0.4527 0.8906 -0.0433
vn -0.4187 0.9075 -0.0336
vn 0.5113 0.7927 0.3319
vn 0.4983 0.7867 0.3644
vn 0.0906 0.9891 0.1163
vn 0.1947 0.9683 0.1566
vn 0.4094 0.9035 0.1270
vn 0.4178 0.9005 0.1206
vn 0.2304 0.7740 -0.5898
vn 0.3080 0.7262 -0.6146
vn 0.2814 0.9309 -0.2328
vn 0.0991 0.9247 -0.3675
vn 0.0050 0.8969 -0.4422
vn 0.1070 0.8010 -0.5890
vn 0.1666 0.9470 -0.2745
vn 0.0733 0.7257 -0.6841
vn 0.5299 0.8476 0.0270
vn -0.8223 0.5614 -0.0929
vn -0.2491 0.8343 0.4918
vn -0.3318 0.9412 0.0629
vn -0.2816 0.9320 0.2280
vn -0.0491 0.8303 0.5551
vn 0.1452 0.9890 0.0294
vn 0.6105 0.7695 -0.1873
vn 0.3008 0.9267 0.2253
vn 0.4781 0.7639 0.4335
vn 0.5064 0.7875 0.3513
vn 0.7072 0.5967 -0.3792
vn 0.7991 0.5205 -0.3009
vn 0.4754 0.7710 -0.4238
vn 0.5324 0.5819 -0.6148
vn 0.4785 0.6978 -0.5331
vn 0.3188 0.8251 -0.4665
vn 0.3399 0.7417 -0.5782
vn 0.3815 0.7130 -0.5883
usemtl Material
s off
f 48/1/1 33/2/1 90/3/1
f 89/4/2 7/5/2 30/6/2
f 88/7/3 5/8/3 44/9/3
f 35/10/4 50/11/4 4/12/4
f 87/13/5 3/14/5 43/15/5
f 86/16/6 1/17/6 41/18/6
f 85/19/7 11/20/7 29/21/7
f 52/22/8 53/23/8 84/24/8
f 83/25/9 19/26/9 54/27/9
f 82/28/10 13/29/10 31/30/10
f 56/31/11 57/32/11 81/33/11
f 80/34/12 16/35/12 58/36/12
f 27/37/4 47/38/4 8/39/4
f 10/40/4 9/41/4 39/42/4
f 40/43/4 2/44/4 38/45/4
f 79/46/13 14/47/13 32/48/13
f 78/49/14 24/50/14 61/51/14
f 77/52/15 18/53/15 62/54/15
f 40/43/4 38/45/4 23/55/4
f 64/56/16 65/57/16 75/58/16
f 45/59/17 66/60/17 74/61/17
f 73/62/18 15/63/18 45/64/18
f 72/65/19 26/66/19 69/67/19
f 71/68/20 18/69/20 70/70/20
f 71/68/21 26/66/21 68/71/21
f 33/72/22 89/4/22 15/73/22
f 49/74/23 36/75/23 71/68/23
f 46/76/24 69/67/24 16/35/24
f 1/17/25 72/65/25 46/76/25
f 37/77/26 68/71/26 72/65/26
f 34/78/27 45/64/27 3/14/27
f 16/35/28 73/62/28 34/78/28
f 69/67/29 67/79/29 73/62/29
f 74/61/30 25/80/30 64/56/30
f 43/15/31 64/56/31 13/29/31
f 3/14/32 74/61/32 43/15/32
f 75/58/33 17/81/33 35/82/33
f 31/30/34 35/82/34 4/12/34
f 13/29/35 75/58/35 31/30/35
f 47/83/36 42/84/36 8/85/36
f 65/57/37 47/83/37 17/81/37
f 25/80/38 76/86/38 65/57/38
f 60/87/39 62/54/39 24/50/39
f 30/88/40 60/87/40 12/89/40
f 7/90/41 77/52/41 30/88/41
f 78/49/42 9/91/42 27/92/42
f 42/93/43 27/92/43 8/94/43
f 12/89/44 78/49/44 42/93/44
f 39/95/45 32/48/45 6/96/45
f 9/91/46 79/46/46 39/95/46
f 61/51/47 59/97/47 79/46/47
f 38/45/4 20/98/4 23/55/4
f 6/99/4 28/100/4 39/42/4
f 23/55/4 17/101/4 47/38/4
f 56/31/48 58/36/48 22/102/48
f 41/18/49 56/31/49 11/20/49
f 1/17/50 80/34/50 41/18/50
f 81/33/51 20/98/51 38/45/51
f 29/21/52 38/45/52 2/44/52
f 11/20/53 81/33/53 29/21/53
f 50/11/54 31/30/54 4/12/54
f 55/103/55 82/28/55 22/102/55
f 83/25/56 21/104/56 52/22/56
f 14/47/57 83/25/57 52/22/57
f 5/8/58 83/25/58 44/9/58
f 84/24/59 10/105/59 28/106/59
f 32/48/60 28/106/60 6/96/60
f 32/48/61 52/22/61 84/24/61
f 40/107/62 29/21/62 2/44/62
f 10/105/63 85/19/63 40/107/63
f 53/23/64 51/108/64 85/19/64
f 51/108/65 41/18/65 11/20/65
f 21/104/66 86/16/66 51/108/66
f 54/27/67 37/109/67 86/16/67
f 55/103/68 43/15/68 13/29/68
f 22/102/69 87/13/69 55/103/69
f 58/36/70 34/78/70 87/13/70
f 50/11/4 35/10/4 17/101/4
f 59/97/71 44/9/71 14/47/71
f 24/50/72 88/7/72 59/97/72
f 62/54/73 36/110/73 88/7/73
f 30/6/74 12/111/74 89/4/74
f 25/80/75 89/4/75 63/112/75
f 71/68/76 68/71/76 49/113/76
f 67/79/77 33/2/77 15/63/77
f 26/66/78 90/3/78 67/79/78
f 70/70/79 48/1/79 90/3/79
f 89/4/80 66/60/80 15/73/80
f 12/111/81 63/112/81 89/4/81
f 36/75/82 62/54/82 18/69/82
f 77/52/83 62/54/83 60/87/83
f 88/7/84 36/110/84 5/8/84
f 62/54/85 88/7/85 24/50/85
f 24/50/86 78/49/86 60/87/86
f 24/50/87 59/97/87 61/51/87
f 76/86/88 12/111/88 42/84/88
f 91/114/89 20/98/89 57/32/89
f 91/115/90 82/116/90 50/117/90
f 68/71/91 19/26/91 49/113/91
f 57/118/92 22/102/92 82/116/92
f 48/1/93 7/119/93 33/2/93
f 89/4/94 33/72/94 7/5/94
f 9/41/4 23/55/4 47/38/4
f 87/13/95 34/78/95 3/14/95
f 86/16/96 37/109/96 1/17/96
f 85/19/97 51/108/97 11/20/97
f 82/28/98 55/103/98 13/29/98
f 79/46/99 59/97/99 14/47/99
f 17/101/4 23/55/4 50/11/4
f 77/52/100 48/120/100 18/53/100
f 76/86/101 63/112/101 12/111/101
f 64/56/102 25/80/102 65/57/102
f 45/59/103 15/73/103 66/60/103
f 73/62/104 67/79/104 15/63/104
f 72/65/105 68/71/105 26/66/105
f 71/68/106 36/75/106 18/69/106
f 71/68/107 70/70/107 26/66/107
f 49/74/108 5/121/108 36/75/108
f 46/76/109 72/65/109 69/67/109
f 1/17/110 37/77/110 72/65/110
f 37/77/111 19/122/111 68/71/111
f 34/78/112 73/62/112 45/64/112
f 16/35/113 69/67/113 73/62/113
f 69/67/114 26/66/114 67/79/114
f 74/61/115 66/60/115 25/80/115
f 43/15/116 74/61/116 64/56/116
f 3/14/117 45/59/117 74/61/117
f 75/58/118 65/57/118 17/81/118
f 31/30/119 75/58/119 35/82/119
f 13/29/120 64/56/120 75/58/120
f 47/83/121 76/86/121 42/84/121
f 65/57/122 76/86/122 47/83/122
f 25/80/123 63/112/123 76/86/123
f 39/42/4 28/100/4 10/40/4
f 30/88/124 77/52/124 60/87/124
f 7/90/125 48/120/125 77/52/125
f 78/49/126 61/51/126 9/91/126
f 42/93/127 78/49/127 27/92/127
f 12/89/128 60/87/128 78/49/128
f 39/95/129 79/46/129 32/48/129
f 9/91/130 61/51/130 79/46/130
f 23/55/4 10/40/4 40/43/4
f 41/18/131 80/34/131 56/31/131
f 1/17/132 46/76/132 80/34/132
f 81/33/133 57/32/133 20/98/133
f 29/21/134 81/33/134 38/45/134
f 11/20/135 56/31/135 81/33/135
f 50/11/136 82/28/136 31/30/136
f 14/47/137 44/9/137 83/25/137
f 5/8/138 49/113/138 83/25/138
f 84/24/139 53/23/139 10/105/139
f 32/48/140 84/24/140 28/106/140
f 32/48/141 14/47/141 52/22/141
f 40/107/142 85/19/142 29/21/142
f 10/105/143 53/23/143 85/19/143
f 51/108/144 86/16/144 41/18/144
f 55/103/145 87/13/145 43/15/145
f 59/97/146 88/7/146 44/9/146
f 10/40/4 23/55/4 9/41/4
f 27/37/4 9/41/4 47/38/4
f 25/80/147 66/60/147 89/4/147
f 67/79/148 90/3/148 33/2/148
f 26/66/149 70/70/149 90/3/149
f 70/70/150 18/69/150 48/1/150
f 91/114/151 50/11/151 20/98/151
f 91/115/152 57/118/152 82/116/152
f 23/55/4 20/98/4 50/11/4
f 56/31/153 22/102/153 57/32/153
f 80/34/154 46/76/154 16/35/154
f 56/31/155 80/34/155 58/36/155
f 22/102/156 58/36/156 87/13/156
f 58/36/157 16/35/157 34/78/157
f 52/22/158 21/104/158 53/23/158
f 83/25/159 49/113/159 19/26/159
f 83/25/160 54/27/160 21/104/160
f 53/23/161 21/104/161 51/108/161
f 21/104/162 54/27/162 86/16/162
f 54/27/163 19/26/163 37/109/163
